<svg version="1.1" id="logo-svg" xmlns="http://www.w3.org/2000/svg" xmlns:xlink="http://www.w3.org/1999/xlink" x="0px" y="0px"
	 viewBox="0 0 520.1 123.69" style="enable-background:new 0 0 520.1 123.69;" xml:space="preserve">
<style type="text/css">
	.st0{display:none;}
	.st1{fill:#f5227d;}
	.st2{fill:#FFFFFF;}
	.st3{display:none;fill:#D5527F;}
	.st4{display:none;fill:#FFFFFF;}
</style>
<g>
	<polygon class="st0" points="-150.71,228.4 683.29,228.4 683.29,-102.59 -150.71,-102.59 -150.71,228.4 	"/>
	<path class="st1" d="M394.58,93.04c-5.01,0-8.78,3.75-8.78,8.72c0,5.05,3.59,8.72,8.54,8.72c5.15,0,8.9-3.66,8.9-8.72
		C403.23,96.63,399.68,93.04,394.58,93.04L394.58,93.04z"/>
	<path class="st1" d="M123.69,61.84c0,34.16-27.69,61.85-61.84,61.85C27.69,123.69,0,96,0,61.84C0,27.69,27.69,0,61.85,0
		C96,0,123.69,27.69,123.69,61.84L123.69,61.84z"/>
	<path class="st2" d="M160.23,53.47c-11.9-4.6-15.72-8.2-15.72-14.8c0-5.54,4.43-11.12,14.34-11.12c8.29,0,13.58,2.88,15.01,3.76
		c0.36,0.22,0.81,0.27,1.21,0.13c0.4-0.14,0.72-0.47,0.85-0.87l2.97-8.8c0.21-0.63-0.05-1.32-0.62-1.66
		c-2.2-1.29-8.45-4.28-19.06-4.28c-16.73,0-28.41,9.91-28.41,24.09c0,11.28,7.52,19.49,22.97,25.12
		c10.81,4.04,14.84,8.15,14.84,15.17c0,7.93-6.16,12.85-16.08,12.85c-6.55,0-13.28-1.91-18.46-5.24c-0.37-0.24-0.82-0.29-1.24-0.14
		c-0.41,0.15-0.73,0.48-0.86,0.9l-2.85,9.05c-0.19,0.59,0.04,1.24,0.56,1.59c4.95,3.29,14.24,5.69,22.09,5.69
		c22.54,0,30.53-13.77,30.53-25.57C182.32,67.19,175.71,59.45,160.23,53.47L160.23,53.47z"/>
	<path class="st2" d="M218.77,40.73h-14.22V27.76c0-0.44-0.21-0.86-0.57-1.13c-0.36-0.27-0.82-0.34-1.24-0.22l-10.66,3.22
		c-0.59,0.18-1,0.72-1,1.34v9.75h-7.88c-0.77,0-1.4,0.63-1.4,1.4v8.3c0,0.77,0.63,1.4,1.4,1.4h7.88v31.33
		c0,7.75,1.5,13.2,4.59,16.69c2.97,3.25,7.52,5.04,12.8,5.04c4.99,0,8.5-0.98,10.14-1.57c0.59-0.21,0.96-0.78,0.93-1.4l-0.49-8.3
		c-0.02-0.43-0.24-0.83-0.6-1.07c-0.35-0.24-0.8-0.32-1.21-0.19c-1.33,0.41-2.85,0.68-5.91,0.68c-3.53,0-6.79-1.24-6.79-10.25V51.84
		h14.22c0.77,0,1.4-0.63,1.4-1.4v-8.3C220.18,41.36,219.55,40.73,218.77,40.73L218.77,40.73z"/>
	<path class="st2" d="M252.21,93.91c-9.68,0-16.7-9.11-16.7-21.65c0-10.84,5.24-21.78,16.94-21.78c11.38,0,16.57,11.16,16.57,21.53
		C269.02,84.7,261.95,93.91,252.21,93.91L252.21,93.91z M252.7,39.49c-18.33,0-31.14,13.63-31.14,33.14c0,19,12.4,32.27,30.15,32.27
		c15.07,0,31.28-10.41,31.28-33.26C282.99,52.71,270.53,39.49,252.7,39.49L252.7,39.49z"/>
	<path class="st2" d="M322.14,39.75l-0.31-0.04c-0.9-0.11-1.75-0.22-2.83-0.22c-6.51,0-12.37,3.59-15.92,9.46l-0.28-6.87
		c-0.03-0.75-0.65-1.35-1.4-1.35h-9.55c-0.39,0-0.76,0.16-1.02,0.44c-0.27,0.28-0.4,0.66-0.38,1.05c0.34,5.27,0.5,11.19,0.5,18.63
		v41.28c0,0.77,0.63,1.4,1.4,1.4h10.9c0.77,0,1.4-0.63,1.4-1.4V70.15c0-1.74,0.13-3.51,0.34-4.83c1.44-7.85,6.51-12.73,13.26-12.73
		c1.42,0,2.45,0,3.41,0.21c0.41,0.09,0.85-0.01,1.18-0.27c0.33-0.27,0.52-0.67,0.52-1.1V41.15
		C323.37,40.44,322.85,39.84,322.14,39.75L322.14,39.75z"/>
	<path class="st2" d="M353.07,50.11c3.93,0,7.1,1.19,9.41,3.55c3.41,3.47,4.15,8.52,4.29,11.24h-28.81
		C339.24,57.76,343.81,50.11,353.07,50.11L353.07,50.11z M353.94,39.49c-17.39,0-29.54,13.83-29.54,33.64
		c0,19.3,12.14,31.77,30.92,31.77c9.82,0,16.65-2.16,20.64-3.96c0.62-0.28,0.95-0.96,0.78-1.62l-1.98-7.81
		c-0.1-0.4-0.37-0.73-0.74-0.92c-0.37-0.18-0.8-0.19-1.18-0.02c-3.16,1.39-7.85,2.98-16.05,2.98c-5.51,0-18.15-1.79-19.11-18.02
		h40.69c0.67,0,1.25-0.48,1.38-1.13c0.26-1.36,0.39-3.06,0.39-5.35C380.13,55.41,373.27,39.49,353.94,39.49L353.94,39.49z"/>
	<path class="st2" d="M461.99,42.14c0-0.77-0.63-1.4-1.4-1.4h-10.9c-0.77,0-1.4,0.63-1.4,1.4v36.69c0,1.87-0.32,3.71-0.89,5.06
		c-1.69,4.22-6.12,9.16-13.07,9.16c-8.07,0-12-5.83-12-17.81v-33.1c0-0.77-0.63-1.4-1.4-1.4h-10.9c-0.77,0-1.4,0.63-1.4,1.4v35.08
		c0,24.98,15.46,27.68,22.11,27.68c9.92,0,15.86-5.04,18.9-8.76l0.39,6.08c0.05,0.74,0.66,1.31,1.4,1.31h9.67
		c0.39,0,0.76-0.16,1.03-0.45c0.27-0.29,0.4-0.67,0.37-1.06c-0.34-4.4-0.5-9.6-0.5-16.38V42.14L461.99,42.14z"/>
	<path class="st2" d="M492.05,94.04c-5.48,0-8.75-3.37-8.75-9.02c0-8.05,7.49-12.13,22.25-12.13c0.11,0,0.22,0,0.34,0v9.03
		c0,0.74-0.08,1.87-0.41,3.02C504.05,89.14,499.67,94.04,492.05,94.04L492.05,94.04z M519.23,87.76V65.32
		c0-11.78-4.2-25.83-24.21-25.83c-7.43,0-15.12,2.03-20.57,5.42c-0.55,0.34-0.8,1.02-0.59,1.64l2.48,7.31
		c0.14,0.41,0.47,0.74,0.88,0.88c0.41,0.14,0.87,0.08,1.23-0.17c3.91-2.64,9.51-4.22,14.97-4.22h0.23c7.9,0,11.92,4.1,11.98,12.2
		c-23.27,0.2-36.07,8.61-36.07,23.71c0,9.26,6.79,18.63,19.75,18.63c6.91,0,13.31-2.68,17.65-7.27l0.54,4.67
		c0.08,0.71,0.68,1.24,1.39,1.24h9.79c0.41,0,0.79-0.18,1.06-0.49c0.27-0.31,0.38-0.71,0.33-1.12
		C519.53,98.13,519.23,93.23,519.23,87.76L519.23,87.76z"/>
	<path class="st2" d="M78.58,38.16c4.47,0,8.08,1.36,10.72,4.05c4.03,4.11,4.78,10.13,4.88,13.1H61.36
		C62.7,47.12,67.89,38.16,78.58,38.16L78.58,38.16z M79.55,27.03c-19.16,0-32.54,15.25-32.54,37.09c0,21.28,13.37,35.02,34.07,35.02
		c10.87,0,18.42-2.38,22.83-4.38c0.54-0.24,0.82-0.84,0.68-1.41l-2.2-8.7c-0.09-0.35-0.32-0.64-0.65-0.8
		c-0.32-0.16-0.7-0.16-1.02-0.02c-3.54,1.56-8.79,3.35-18,3.35c-6.27,0-20.72-2.06-21.64-20.75h45.66c0.58,0,1.08-0.41,1.19-0.98
		c0.29-1.49,0.43-3.36,0.43-5.89C108.36,44.56,100.82,27.03,79.55,27.03L79.55,27.03z"/>
	<path class="st3" d="M391.34,403c-5.01,0-8.79,3.76-8.79,8.73c0,5.06,3.6,8.73,8.55,8.73c5.17,0,8.92-3.67,8.92-8.73
		C400.01,406.59,396.44,403,391.34,403L391.34,403z"/>
	<path class="st3" d="M119.93,371.74c0,34.22-27.74,61.97-61.96,61.97C23.74,433.71-4,405.96-4,371.74
		c0-34.22,27.74-61.96,61.97-61.96C92.19,309.77,119.93,337.52,119.93,371.74L119.93,371.74z"/>
	<path class="st0" d="M156.53,363.35c-11.92-4.61-15.75-8.22-15.75-14.83c0-5.54,4.44-11.14,14.37-11.14
		c8.3,0,13.61,2.88,15.04,3.77c0.36,0.23,0.81,0.27,1.22,0.13c0.4-0.14,0.72-0.47,0.85-0.87l2.97-8.82
		c0.21-0.63-0.05-1.32-0.62-1.66c-2.2-1.29-8.47-4.29-19.1-4.29c-16.76,0-28.46,9.92-28.46,24.13c0,11.3,7.53,19.53,23.02,25.16
		c10.84,4.05,14.86,8.17,14.86,15.2c0,7.94-6.17,12.88-16.11,12.88c-6.56,0-13.3-1.91-18.49-5.25c-0.37-0.24-0.83-0.29-1.24-0.14
		c-0.41,0.15-0.73,0.48-0.86,0.9l-2.85,9.07c-0.19,0.6,0.04,1.24,0.56,1.59c4.96,3.3,14.27,5.7,22.14,5.7
		c22.58,0,30.59-13.8,30.59-25.62C178.67,377.09,172.05,369.34,156.53,363.35L156.53,363.35z"/>
	<path class="st0" d="M215.19,350.59h-14.25v-13c0-0.44-0.21-0.86-0.57-1.13c-0.36-0.27-0.82-0.34-1.24-0.22l-10.68,3.22
		c-0.59,0.18-1,0.72-1,1.34v9.77h-7.9c-0.78,0-1.4,0.63-1.4,1.41v8.32c0,0.78,0.63,1.41,1.4,1.41h7.9v31.39
		c0,7.77,1.5,13.23,4.59,16.72c2.98,3.26,7.54,5.05,12.83,5.05c5,0,8.51-0.99,10.16-1.57c0.59-0.21,0.97-0.78,0.93-1.41l-0.49-8.32
		c-0.03-0.43-0.25-0.83-0.6-1.07c-0.35-0.24-0.8-0.32-1.21-0.19c-1.33,0.41-2.85,0.69-5.92,0.69c-3.53,0-6.81-1.25-6.81-10.27
		v-31.01h14.25c0.78,0,1.4-0.63,1.4-1.41v-8.32C216.6,351.22,215.97,350.59,215.19,350.59L215.19,350.59z"/>
	<path class="st0" d="M248.7,403.87c-9.7,0-16.74-9.12-16.74-21.7c0-10.86,5.25-21.82,16.98-21.82c11.4,0,16.6,11.18,16.6,21.57
		C265.54,394.64,258.46,403.87,248.7,403.87L248.7,403.87z M249.18,349.34c-18.37,0-31.2,13.65-31.2,33.2
		c0,19.04,12.42,32.33,30.21,32.33c15.09,0,31.34-10.43,31.34-33.32C279.53,362.59,267.05,349.34,249.18,349.34L249.18,349.34z"/>
	<path class="st0" d="M318.76,349.61l-0.31-0.04c-0.9-0.12-1.75-0.23-2.84-0.23c-6.52,0-12.39,3.6-15.95,9.48l-0.28-6.89
		c-0.03-0.75-0.65-1.35-1.41-1.35h-9.57c-0.39,0-0.76,0.16-1.02,0.45c-0.26,0.28-0.4,0.66-0.38,1.05c0.34,5.29,0.5,11.21,0.5,18.66
		v41.36c0,0.77,0.63,1.41,1.4,1.41h10.92c0.77,0,1.4-0.63,1.4-1.41v-32.04c0-1.75,0.13-3.52,0.34-4.84
		c1.44-7.87,6.53-12.75,13.28-12.75c1.42,0,2.46,0,3.42,0.21c0.41,0.09,0.85-0.01,1.18-0.28c0.33-0.26,0.53-0.67,0.53-1.1V351
		C319.99,350.3,319.47,349.7,318.76,349.61L318.76,349.61z"/>
	<path class="st0" d="M349.75,359.99c3.94,0,7.11,1.19,9.43,3.56c3.42,3.48,4.16,8.53,4.29,11.26h-28.86
		C335.9,367.65,340.48,359.99,349.75,359.99L349.75,359.99z M350.62,349.34c-17.43,0-29.6,13.86-29.6,33.7
		c0,19.34,12.16,31.83,30.98,31.83c9.84,0,16.68-2.16,20.68-3.97c0.62-0.28,0.95-0.97,0.78-1.63l-1.98-7.83
		c-0.1-0.4-0.37-0.74-0.74-0.92c-0.37-0.18-0.8-0.19-1.18-0.02c-3.17,1.39-7.86,2.99-16.08,2.99c-5.52,0-18.19-1.79-19.15-18.05
		h40.77c0.67,0,1.25-0.48,1.38-1.14c0.26-1.36,0.39-3.07,0.39-5.36C376.86,365.29,369.99,349.34,350.62,349.34L350.62,349.34z"/>
	<path class="st0" d="M458.88,351.99c0-0.78-0.63-1.41-1.4-1.41h-10.92c-0.78,0-1.41,0.63-1.41,1.41v36.76
		c0,1.87-0.32,3.71-0.89,5.08c-1.69,4.23-6.13,9.17-13.1,9.17c-8.09,0-12.02-5.84-12.02-17.85v-33.16c0-0.78-0.63-1.41-1.41-1.41
		h-10.92c-0.78,0-1.4,0.63-1.4,1.41v35.15c0,25.03,15.49,27.74,22.16,27.74c9.93,0,15.89-5.05,18.94-8.78l0.39,6.1
		c0.04,0.74,0.66,1.31,1.4,1.31h9.69c0.39,0,0.77-0.16,1.03-0.45c0.27-0.29,0.4-0.67,0.37-1.06c-0.34-4.41-0.5-9.62-0.5-16.41
		V351.99L458.88,351.99z"/>
	<path class="st0" d="M489,404c-5.49,0-8.77-3.37-8.77-9.03c0-8.06,7.5-12.15,22.29-12.15c0.11,0,0.23,0,0.34,0v9.05
		c0,0.74-0.07,1.88-0.41,3.03C501.02,399.09,496.63,404,489,404L489,404z M516.23,397.7v-22.48c0-11.8-4.21-25.87-24.26-25.87
		c-7.45,0-15.15,2.03-20.6,5.43c-0.55,0.35-0.8,1.03-0.59,1.64l2.49,7.33c0.14,0.41,0.47,0.74,0.88,0.88
		c0.42,0.14,0.87,0.08,1.24-0.17c3.92-2.65,9.52-4.23,15-4.23h0.23c7.91,0,11.95,4.11,12,12.22c-23.32,0.2-36.14,8.62-36.14,23.75
		c0,9.28,6.8,18.67,19.79,18.67c6.92,0,13.34-2.68,17.69-7.29l0.54,4.68c0.08,0.71,0.68,1.24,1.4,1.24h9.81
		c0.41,0,0.8-0.17,1.06-0.49c0.27-0.31,0.39-0.72,0.33-1.12C516.53,408.1,516.23,403.19,516.23,397.7L516.23,397.7z"/>
	<path class="st4" d="M74.74,348.01c4.48,0,8.09,1.37,10.74,4.06c4.04,4.11,4.79,10.15,4.89,13.12h-32.9
		C58.82,356.98,64.02,348.01,74.74,348.01L74.74,348.01z M75.71,336.86c-19.2,0-32.6,15.28-32.6,37.16
		c0,21.32,13.4,35.09,34.13,35.09c10.89,0,18.46-2.39,22.88-4.39c0.54-0.24,0.82-0.84,0.68-1.41l-2.2-8.72
		c-0.09-0.34-0.33-0.64-0.65-0.8c-0.32-0.16-0.7-0.16-1.03-0.02c-3.55,1.56-8.81,3.35-18.04,3.35c-6.28,0-20.76-2.06-21.68-20.79
		h45.75c0.58,0,1.08-0.41,1.19-0.98c0.29-1.49,0.43-3.37,0.43-5.9C104.57,354.42,97.01,336.86,75.71,336.86L75.71,336.86z"/>
</g>
</svg>
